name ./resultDataOpenSim/trcMotMarkerGrf/sub10/grf-01-06.mot
datacolumns 19
datarows 12
range 0.92800000 0.97200000
endheader

                time	     ground_force_vx	     ground_force_vy	     ground_force_vz	     ground_force_px	     ground_force_py	     ground_force_pz	   l_ground_force_vx	   l_ground_force_vy	   l_ground_force_vz	   l_ground_force_px	   l_ground_force_py	   l_ground_force_pz	     ground_torque_x	     ground_torque_y	     ground_torque_z	   l_ground_torque_x	   l_ground_torque_y	   l_ground_torque_z	
          0.92800000	          0.00000000	          0.00000000	          0.00000000	          0.00000000	          0.00000000	          0.00000000	         -5.55396257	        399.20393248	         26.07556600	          0.01326554	          0.00000000	         -0.08609915	          0.00000000	          0.00000000	          0.00000000	          0.00000000	         -0.90787044	          0.00000000	
          0.93200000	          0.00000000	          0.00000000	          0.00000000	          0.00000000	          0.00000000	          0.00000000	         -3.42726794	        401.10180161	         26.28315331	          0.01434741	          0.00000000	         -0.08595609	          0.00000000	          0.00000000	          0.00000000	          0.00000000	         -1.04772006	          0.00000000	
          0.93600000	          0.00000000	          0.00000000	          0.00000000	          0.00000000	          0.00000000	          0.00000000	         -1.12821205	        404.21327321	         26.53330247	          0.01540863	          0.00000000	         -0.08578382	          0.00000000	          0.00000000	          0.00000000	          0.00000000	         -1.20943376	          0.00000000	
          0.94000000	          0.00000000	          0.00000000	          0.00000000	          0.00000000	          0.00000000	          0.00000000	          1.32110873	        408.60680115	         26.76733442	          0.01654919	          0.00000000	         -0.08553062	          0.00000000	          0.00000000	          0.00000000	          0.00000000	         -1.39397997	          0.00000000	
          0.94400000	          0.00000000	          0.00000000	          0.00000000	          0.00000000	          0.00000000	          0.00000000	          3.88060700	        414.26651789	         26.94168108	          0.01784013	          0.00000000	         -0.08517337	          0.00000000	          0.00000000	          0.00000000	          0.00000000	         -1.60166773	          0.00000000	
          0.94800000	          0.00000000	          0.00000000	          0.00000000	          0.00000000	          0.00000000	          0.00000000	          6.48925996	        421.14921934	         27.04945771	          0.01926696	          0.00000000	         -0.08473002	          0.00000000	          0.00000000	          0.00000000	          0.00000000	         -1.83195154	          0.00000000	
          0.95200000	          0.00000000	          0.00000000	          0.00000000	          0.00000000	          0.00000000	          0.00000000	          9.07706480	        429.18691862	         27.12490056	          0.02075330	          0.00000000	         -0.08423299	          0.00000000	          0.00000000	          0.00000000	          0.00000000	         -2.08315941	          0.00000000	
          0.95600000	          0.00000000	          0.00000000	          0.00000000	          0.00000000	          0.00000000	          0.00000000	         11.58380802	        438.24371596	         27.22364813	          0.02219789	          0.00000000	         -0.08373007	          0.00000000	          0.00000000	          0.00000000	          0.00000000	         -2.35231121	          0.00000000	
          0.96000000	          0.00000000	          0.00000000	          0.00000000	          0.00000000	          0.00000000	          0.00000000	         13.97604871	        448.11195625	         27.38680774	          0.02349859	          0.00000000	         -0.08329918	          0.00000000	          0.00000000	          0.00000000	          0.00000000	         -2.63514512	          0.00000000	
          0.96400000	          0.00000000	          0.00000000	          0.00000000	          0.00000000	          0.00000000	          0.00000000	         16.25317502	        458.59089861	         27.61313129	          0.02459565	          0.00000000	         -0.08300872	          0.00000000	          0.00000000	          0.00000000	          0.00000000	         -2.92629774	          0.00000000	
          0.96800000	          0.00000000	          0.00000000	          0.00000000	          0.00000000	          0.00000000	          0.00000000	         18.44009291	        469.58290347	         27.86771328	          0.02551700	          0.00000000	         -0.08285565	          0.00000000	          0.00000000	          0.00000000	          0.00000000	         -3.21947805	          0.00000000	
          0.97200000	          0.00000000	          0.00000000	          0.00000000	          0.00000000	          0.00000000	          0.00000000	         20.58222421	        481.11355969	         28.13033681	          0.02637446	          0.00000000	         -0.08276017	          0.00000000	          0.00000000	          0.00000000	          0.00000000	         -3.50756127	          0.00000000	
